<svg width="54" height="55" viewBox="0 0 54 55" fill="none" xmlns="http://www.w3.org/2000/svg">
<path d="M27 29.5615V7.06152M27 7.06152L20.25 13.8115M27 7.06152L33.75 13.8115M22.5 43.0615C22.5 41.868 22.9741 40.7235 23.818 39.8795C24.6619 39.0356 25.8065 38.5615 27 38.5615C28.1935 38.5615 29.3381 39.0356 30.182 39.8795C31.0259 40.7235 31.5 41.868 31.5 43.0615C31.5 44.255 31.0259 45.3996 30.182 46.2435C29.3381 47.0874 28.1935 47.5615 27 47.5615C25.8065 47.5615 24.6619 47.0874 23.818 46.2435C22.9741 45.3996 22.5 44.255 22.5 43.0615Z" stroke="#72B555" stroke-width="2" stroke-linecap="round" stroke-linejoin="round"/>
</svg>
