<svg width="980" height="900" viewBox="0 0 980 900" fill="none" xmlns="http://www.w3.org/2000/svg">
<rect x="329" y="2" width="322" height="141" fill="#4595CD"/>
<rect x="329" y="2" width="322" height="141" stroke="white" stroke-width="4"/>
<path d="M462.176 43.288C459.424 43.288 457.256 42.44 455.672 40.744L457.232 38.584C458.608 40.056 460.296 40.792 462.296 40.792C463.368 40.792 464.168 40.576 464.696 40.144C465.24 39.712 465.512 39.2 465.512 38.608C465.512 38 465.192 37.52 464.552 37.168C463.912 36.8 463.136 36.512 462.224 36.304C461.312 36.096 460.392 35.848 459.464 35.56C458.552 35.272 457.776 34.784 457.136 34.096C456.496 33.408 456.176 32.52 456.176 31.432C456.176 30.088 456.712 28.976 457.784 28.096C458.872 27.2 460.28 26.752 462.008 26.752C464.472 26.752 466.472 27.496 468.008 28.984L466.4 31.072C465.184 29.856 463.64 29.248 461.768 29.248C460.936 29.248 460.272 29.432 459.776 29.8C459.296 30.152 459.056 30.632 459.056 31.24C459.056 31.64 459.224 31.976 459.56 32.248C459.912 32.52 460.36 32.744 460.904 32.92C461.448 33.08 462.048 33.24 462.704 33.4C463.376 33.56 464.04 33.76 464.696 34C465.368 34.224 465.976 34.504 466.52 34.84C467.064 35.176 467.504 35.64 467.84 36.232C468.192 36.824 468.368 37.528 468.368 38.344C468.368 39.784 467.848 40.968 466.808 41.896C465.768 42.824 464.224 43.288 462.176 43.288ZM474.01 43.288C473.034 43.288 472.29 43.032 471.778 42.52C471.282 42.008 471.034 41.272 471.034 40.312V33.616H469.114V31.408H471.034V28.24H473.554V31.408H475.906V33.616H473.554V39.688C473.554 40.104 473.65 40.44 473.842 40.696C474.034 40.936 474.306 41.056 474.658 41.056C475.17 41.056 475.546 40.92 475.786 40.648L476.386 42.544C475.858 43.04 475.066 43.288 474.01 43.288ZM483.547 43.288C481.787 43.288 480.331 42.728 479.179 41.608C478.043 40.472 477.475 39 477.475 37.192C477.475 35.496 478.027 34.064 479.131 32.896C480.251 31.712 481.659 31.12 483.355 31.12C485.067 31.12 486.443 31.712 487.483 32.896C488.539 34.08 489.067 35.592 489.067 37.432V38.032H480.115C480.211 38.944 480.587 39.704 481.243 40.312C481.899 40.92 482.755 41.224 483.811 41.224C484.403 41.224 484.995 41.112 485.587 40.888C486.195 40.664 486.699 40.352 487.099 39.952L488.251 41.608C487.083 42.728 485.515 43.288 483.547 43.288ZM486.619 36.256C486.587 35.456 486.291 34.744 485.731 34.12C485.187 33.496 484.395 33.184 483.355 33.184C482.363 33.184 481.587 33.496 481.027 34.12C480.467 34.728 480.155 35.44 480.09 36.256H486.619ZM497.794 43.288C496.258 43.288 495.018 42.656 494.074 41.392V47.416H491.554V31.408H494.074V32.992C495.002 31.744 496.242 31.12 497.794 31.12C499.314 31.12 500.546 31.664 501.49 32.752C502.45 33.84 502.93 35.32 502.93 37.192C502.93 39.064 502.45 40.552 501.49 41.656C500.546 42.744 499.314 43.288 497.794 43.288ZM497.05 41.056C498.042 41.056 498.834 40.696 499.426 39.976C500.018 39.256 500.314 38.328 500.314 37.192C500.314 36.056 500.018 35.136 499.426 34.432C498.834 33.712 498.042 33.352 497.05 33.352C496.474 33.352 495.906 33.504 495.346 33.808C494.786 34.112 494.362 34.48 494.074 34.912V39.496C494.362 39.928 494.786 40.296 495.346 40.6C495.906 40.904 496.474 41.056 497.05 41.056ZM517.257 43.288C514.681 43.288 512.697 42.464 511.305 40.816L512.913 38.896C514.033 40.16 515.473 40.792 517.233 40.792C518.225 40.792 519.017 40.528 519.609 40C520.217 39.456 520.521 38.784 520.521 37.984C520.521 37.12 520.225 36.432 519.633 35.92C519.057 35.392 518.281 35.128 517.305 35.128C515.945 35.128 514.777 35.592 513.801 36.52L511.809 35.944V26.992H522.297V29.464H514.617V34.096C515.545 33.168 516.753 32.704 518.241 32.704C519.649 32.704 520.849 33.176 521.841 34.12C522.849 35.048 523.353 36.296 523.353 37.864C523.353 39.512 522.785 40.832 521.649 41.824C520.529 42.8 519.065 43.288 517.257 43.288Z" fill="white"/>
<path d="M388.924 110H382.06V83.984H372.7V77.984H398.236V83.984H388.924V110ZM418.728 110H412.632V107.6C410.968 109.584 408.52 110.576 405.288 110.576C403.208 110.576 401.336 109.904 399.672 108.56C398.04 107.184 397.224 105.296 397.224 102.896C397.224 100.4 398.024 98.528 399.624 97.28C401.256 96.032 403.144 95.408 405.288 95.408C408.584 95.408 411.032 96.352 412.632 98.24V95.12C412.632 93.936 412.168 92.992 411.24 92.288C410.312 91.584 409.08 91.232 407.544 91.232C405.016 91.232 402.76 92.144 400.776 93.968L398.472 89.888C401.224 87.456 404.6 86.24 408.6 86.24C411.576 86.24 414.008 86.928 415.896 88.304C417.784 89.68 418.728 91.92 418.728 95.024V110ZM407.736 106.448C410.008 106.448 411.64 105.776 412.632 104.432V101.552C411.64 100.208 410.008 99.536 407.736 99.536C406.488 99.536 405.448 99.856 404.616 100.496C403.784 101.104 403.368 101.952 403.368 103.04C403.368 104.096 403.784 104.928 404.616 105.536C405.448 106.144 406.488 106.448 407.736 106.448ZM430.87 110H424.774V77.984H430.87V110ZM447.811 110.576C444.227 110.576 441.267 109.456 438.931 107.216C436.595 104.976 435.427 102.032 435.427 98.384C435.427 94.96 436.547 92.08 438.787 89.744C441.059 87.408 443.939 86.24 447.427 86.24C450.883 86.24 453.683 87.424 455.827 89.792C457.971 92.128 459.043 95.2 459.043 99.008V100.352H441.811C442.003 101.888 442.691 103.168 443.875 104.192C445.059 105.216 446.595 105.728 448.483 105.728C449.507 105.728 450.611 105.52 451.795 105.104C453.011 104.688 453.971 104.128 454.675 103.424L457.363 107.36C455.027 109.504 451.843 110.576 447.811 110.576ZM453.139 96.224C453.043 94.912 452.515 93.728 451.555 92.672C450.627 91.616 449.251 91.088 447.427 91.088C445.699 91.088 444.355 91.616 443.395 92.672C442.435 93.696 441.875 94.88 441.715 96.224H453.139ZM485.19 110H479.094V95.984C479.094 93.104 477.67 91.664 474.822 91.664C472.614 91.664 470.854 92.576 469.542 94.4V110H463.446V86.816H469.542V89.84C471.558 87.44 474.262 86.24 477.654 86.24C480.15 86.24 482.022 86.896 483.27 88.208C484.55 89.52 485.19 91.328 485.19 93.632V110ZM499.019 110.576C496.875 110.576 495.243 110.032 494.123 108.944C493.003 107.856 492.443 106.288 492.443 104.24V92.144H488.603V86.816H492.443V80.48H498.587V86.816H503.291V92.144H498.587V102.608C498.587 103.344 498.779 103.952 499.163 104.432C499.547 104.912 500.059 105.152 500.699 105.152C501.659 105.152 502.363 104.928 502.811 104.48L504.107 109.088C502.987 110.08 501.291 110.576 499.019 110.576ZM548.687 110H541.823V96.56H526.703V110H519.887V77.984H526.703V90.56H541.823V77.984H548.687V110ZM576.596 110H570.5V107.072C568.42 109.408 565.7 110.576 562.34 110.576C559.844 110.576 557.972 109.936 556.724 108.656C555.476 107.376 554.852 105.584 554.852 103.28V86.816H560.948V100.88C560.948 103.728 562.372 105.152 565.22 105.152C567.364 105.152 569.124 104.272 570.5 102.512V86.816H576.596V110ZM588.745 102.56C589.257 103.296 590.009 103.92 591.001 104.432C591.993 104.912 592.985 105.152 593.977 105.152C595.737 105.152 597.161 104.544 598.249 103.328C599.337 102.08 599.881 100.448 599.881 98.432C599.881 96.416 599.337 94.784 598.249 93.536C597.161 92.288 595.737 91.664 593.977 91.664C592.985 91.664 591.993 91.92 591.001 92.432C590.009 92.944 589.257 93.584 588.745 94.352V102.56ZM588.745 110H582.649V77.984H588.745V89.792C590.569 87.424 592.953 86.24 595.897 86.24C598.905 86.24 601.369 87.344 603.289 89.552C605.209 91.76 606.169 94.72 606.169 98.432C606.169 102.208 605.209 105.184 603.289 107.36C601.369 109.504 598.905 110.576 595.897 110.576C593.017 110.576 590.633 109.392 588.745 107.024V110Z" fill="white"/>
<rect x="264" y="147" width="452" height="141" fill="#4595CD"/>
<rect x="264" y="147" width="452" height="141" stroke="white" stroke-width="4"/>
<path d="M462.676 188.288C459.924 188.288 457.756 187.44 456.172 185.744L457.732 183.584C459.108 185.056 460.796 185.792 462.796 185.792C463.868 185.792 464.668 185.576 465.196 185.144C465.74 184.712 466.012 184.2 466.012 183.608C466.012 183 465.692 182.52 465.052 182.168C464.412 181.8 463.636 181.512 462.724 181.304C461.812 181.096 460.892 180.848 459.964 180.56C459.052 180.272 458.276 179.784 457.636 179.096C456.996 178.408 456.676 177.52 456.676 176.432C456.676 175.088 457.212 173.976 458.284 173.096C459.372 172.2 460.78 171.752 462.508 171.752C464.972 171.752 466.972 172.496 468.508 173.984L466.9 176.072C465.684 174.856 464.14 174.248 462.268 174.248C461.436 174.248 460.772 174.432 460.276 174.8C459.796 175.152 459.556 175.632 459.556 176.24C459.556 176.64 459.724 176.976 460.06 177.248C460.412 177.52 460.86 177.744 461.404 177.92C461.948 178.08 462.548 178.24 463.204 178.4C463.876 178.56 464.54 178.76 465.196 179C465.868 179.224 466.476 179.504 467.02 179.84C467.564 180.176 468.004 180.64 468.34 181.232C468.692 181.824 468.868 182.528 468.868 183.344C468.868 184.784 468.348 185.968 467.308 186.896C466.268 187.824 464.724 188.288 462.676 188.288ZM474.51 188.288C473.534 188.288 472.79 188.032 472.278 187.52C471.782 187.008 471.534 186.272 471.534 185.312V178.616H469.614V176.408H471.534V173.24H474.054V176.408H476.406V178.616H474.054V184.688C474.054 185.104 474.15 185.44 474.342 185.696C474.534 185.936 474.806 186.056 475.158 186.056C475.67 186.056 476.046 185.92 476.286 185.648L476.886 187.544C476.358 188.04 475.566 188.288 474.51 188.288ZM484.047 188.288C482.287 188.288 480.831 187.728 479.679 186.608C478.543 185.472 477.975 184 477.975 182.192C477.975 180.496 478.527 179.064 479.631 177.896C480.751 176.712 482.159 176.12 483.855 176.12C485.567 176.12 486.943 176.712 487.983 177.896C489.039 179.08 489.567 180.592 489.567 182.432V183.032H480.615C480.711 183.944 481.087 184.704 481.743 185.312C482.399 185.92 483.255 186.224 484.311 186.224C484.903 186.224 485.495 186.112 486.087 185.888C486.695 185.664 487.199 185.352 487.599 184.952L488.751 186.608C487.583 187.728 486.015 188.288 484.047 188.288ZM487.119 181.256C487.087 180.456 486.791 179.744 486.231 179.12C485.687 178.496 484.895 178.184 483.855 178.184C482.863 178.184 482.087 178.496 481.527 179.12C480.967 179.728 480.655 180.44 480.59 181.256H487.119ZM498.294 188.288C496.758 188.288 495.518 187.656 494.574 186.392V192.416H492.054V176.408H494.574V177.992C495.502 176.744 496.742 176.12 498.294 176.12C499.814 176.12 501.046 176.664 501.99 177.752C502.95 178.84 503.43 180.32 503.43 182.192C503.43 184.064 502.95 185.552 501.99 186.656C501.046 187.744 499.814 188.288 498.294 188.288ZM497.55 186.056C498.542 186.056 499.334 185.696 499.926 184.976C500.518 184.256 500.814 183.328 500.814 182.192C500.814 181.056 500.518 180.136 499.926 179.432C499.334 178.712 498.542 178.352 497.55 178.352C496.974 178.352 496.406 178.504 495.846 178.808C495.286 179.112 494.862 179.48 494.574 179.912V184.496C494.862 184.928 495.286 185.296 495.846 185.6C496.406 185.904 496.974 186.056 497.55 186.056ZM521.573 188H518.765V184.376H511.133V182.12L517.709 171.992H521.573V181.904H523.709V184.376H521.573V188ZM518.765 181.904V174.512L513.893 181.904H518.765Z" fill="white"/>
<path d="M376.336 255.576C371.504 255.576 367.504 254.024 364.336 250.92C361.2 247.784 359.632 243.816 359.632 239.016C359.632 234.216 361.2 230.264 364.336 227.16C367.504 224.024 371.504 222.456 376.336 222.456C381.2 222.456 385.2 224.008 388.336 227.112C391.504 230.216 393.088 234.184 393.088 239.016C393.088 243.848 391.504 247.816 388.336 250.92C385.2 254.024 381.2 255.576 376.336 255.576ZM369.28 246.552C371.072 248.536 373.424 249.528 376.336 249.528C379.248 249.528 381.6 248.536 383.392 246.552C385.184 244.568 386.08 242.056 386.08 239.016C386.08 235.976 385.184 233.464 383.392 231.48C381.6 229.496 379.248 228.504 376.336 228.504C373.424 228.504 371.072 229.496 369.28 231.48C367.52 233.464 366.64 235.976 366.64 239.016C366.64 242.056 367.52 244.568 369.28 246.552ZM405.215 255H399.071V237.144H395.231V231.816H399.071V230.568C399.071 228.104 399.791 226.152 401.231 224.712C402.671 223.24 404.559 222.504 406.895 222.504C409.583 222.504 411.599 223.224 412.943 224.664L410.639 228.264C409.999 227.624 409.151 227.304 408.095 227.304C407.231 227.304 406.527 227.592 405.983 228.168C405.471 228.712 405.215 229.512 405.215 230.568V231.816H409.919V237.144H405.215V255ZM420.911 255H414.767V237.144H410.927V231.816H414.767V230.568C414.767 228.104 415.487 226.152 416.927 224.712C418.367 223.24 420.255 222.504 422.591 222.504C425.279 222.504 427.295 223.224 428.639 224.664L426.335 228.264C425.695 227.624 424.847 227.304 423.791 227.304C422.927 227.304 422.223 227.592 421.679 228.168C421.167 228.712 420.911 229.512 420.911 230.568V231.816H425.615V237.144H420.911V255ZM435.276 247.56C435.788 248.296 436.54 248.92 437.532 249.432C438.524 249.912 439.516 250.152 440.508 250.152C442.268 250.152 443.692 249.544 444.78 248.328C445.868 247.08 446.412 245.448 446.412 243.432C446.412 241.416 445.868 239.784 444.78 238.536C443.692 237.288 442.268 236.664 440.508 236.664C439.516 236.664 438.524 236.92 437.532 237.432C436.54 237.944 435.788 238.584 435.276 239.352V247.56ZM435.276 255H429.18V222.984H435.276V234.792C437.1 232.424 439.484 231.24 442.428 231.24C445.436 231.24 447.9 232.344 449.82 234.552C451.74 236.76 452.7 239.72 452.7 243.432C452.7 247.208 451.74 250.184 449.82 252.36C447.9 254.504 445.436 255.576 442.428 255.576C439.548 255.576 437.164 254.392 435.276 252.024V255ZM476.985 252.072C474.745 254.408 471.769 255.576 468.057 255.576C464.345 255.576 461.369 254.408 459.129 252.072C456.921 249.704 455.817 246.808 455.817 243.384C455.817 239.96 456.921 237.08 459.129 234.744C461.369 232.408 464.345 231.24 468.057 231.24C471.769 231.24 474.745 232.408 476.985 234.744C479.225 237.08 480.345 239.96 480.345 243.384C480.345 246.808 479.225 249.704 476.985 252.072ZM463.737 248.232C464.793 249.512 466.233 250.152 468.057 250.152C469.881 250.152 471.321 249.512 472.377 248.232C473.465 246.92 474.009 245.304 474.009 243.384C474.009 241.496 473.465 239.912 472.377 238.632C471.321 237.32 469.881 236.664 468.057 236.664C466.233 236.664 464.793 237.32 463.737 238.632C462.681 239.912 462.153 241.496 462.153 243.384C462.153 245.304 462.681 246.92 463.737 248.232ZM504.884 255H498.788V252.6C497.124 254.584 494.676 255.576 491.444 255.576C489.364 255.576 487.492 254.904 485.828 253.56C484.196 252.184 483.38 250.296 483.38 247.896C483.38 245.4 484.18 243.528 485.78 242.28C487.412 241.032 489.3 240.408 491.444 240.408C494.74 240.408 497.188 241.352 498.788 243.24V240.12C498.788 238.936 498.324 237.992 497.396 237.288C496.468 236.584 495.236 236.232 493.7 236.232C491.172 236.232 488.916 237.144 486.932 238.968L484.628 234.888C487.38 232.456 490.756 231.24 494.756 231.24C497.732 231.24 500.164 231.928 502.052 233.304C503.94 234.68 504.884 236.92 504.884 240.024V255ZM493.892 251.448C496.164 251.448 497.796 250.776 498.788 249.432V246.552C497.796 245.208 496.164 244.536 493.892 244.536C492.644 244.536 491.604 244.856 490.772 245.496C489.94 246.104 489.524 246.952 489.524 248.04C489.524 249.096 489.94 249.928 490.772 250.536C491.604 251.144 492.644 251.448 493.892 251.448ZM517.026 255H510.93V231.816H517.026V234.984C517.89 233.896 518.994 233 520.338 232.296C521.682 231.592 523.042 231.24 524.418 231.24V237.192C524.002 237.096 523.442 237.048 522.738 237.048C521.714 237.048 520.626 237.304 519.474 237.816C518.322 238.328 517.506 238.952 517.026 239.688V255ZM550.307 255H544.163V252.024C542.275 254.392 539.891 255.576 537.011 255.576C534.003 255.576 531.539 254.504 529.619 252.36C527.699 250.184 526.739 247.208 526.739 243.432C526.739 239.72 527.699 236.76 529.619 234.552C531.539 232.344 534.003 231.24 537.011 231.24C539.955 231.24 542.339 232.424 544.163 234.792V222.984H550.307V255ZM538.883 250.152C539.907 250.152 540.915 249.912 541.907 249.432C542.899 248.92 543.651 248.28 544.163 247.512V239.304C543.651 238.536 542.899 237.912 541.907 237.432C540.915 236.92 539.907 236.664 538.883 236.664C537.155 236.664 535.747 237.288 534.659 238.536C533.571 239.784 533.027 241.416 533.027 243.432C533.027 245.416 533.571 247.032 534.659 248.28C535.747 249.528 537.155 250.152 538.883 250.152ZM559.376 229.32C558.384 229.32 557.52 228.968 556.784 228.264C556.08 227.528 555.728 226.664 555.728 225.672C555.728 224.68 556.08 223.832 556.784 223.128C557.52 222.424 558.384 222.072 559.376 222.072C560.4 222.072 561.264 222.424 561.968 223.128C562.672 223.832 563.024 224.68 563.024 225.672C563.024 226.664 562.672 227.528 561.968 228.264C561.264 228.968 560.4 229.32 559.376 229.32ZM562.448 255H556.352V231.816H562.448V255ZM590.237 255H584.141V240.984C584.141 238.104 582.717 236.664 579.869 236.664C577.661 236.664 575.901 237.576 574.589 239.4V255H568.493V231.816H574.589V234.84C576.605 232.44 579.309 231.24 582.701 231.24C585.197 231.24 587.069 231.896 588.317 233.208C589.597 234.52 590.237 236.328 590.237 238.632V255ZM605.794 264.408C601.794 264.408 598.466 263.256 595.81 260.952L598.546 256.536C600.274 258.456 602.69 259.416 605.794 259.416C607.522 259.416 609.01 258.952 610.258 258.024C611.538 257.128 612.178 255.64 612.178 253.56V251.208C610.258 253.64 607.874 254.856 605.026 254.856C602.018 254.856 599.554 253.832 597.634 251.784C595.746 249.704 594.802 246.792 594.802 243.048C594.802 239.336 595.746 236.44 597.634 234.36C599.554 232.28 602.018 231.24 605.026 231.24C607.906 231.24 610.29 232.424 612.178 234.792V231.816H618.322V253.416C618.322 255.528 617.938 257.336 617.17 258.84C616.434 260.344 615.426 261.48 614.146 262.248C612.866 263.016 611.538 263.56 610.162 263.88C608.818 264.232 607.362 264.408 605.794 264.408ZM606.946 249.432C607.938 249.432 608.93 249.176 609.922 248.664C610.914 248.152 611.666 247.528 612.178 246.792V239.304C611.666 238.536 610.914 237.912 609.922 237.432C608.962 236.92 607.97 236.664 606.946 236.664C605.186 236.664 603.762 237.24 602.674 238.392C601.618 239.544 601.09 241.096 601.09 243.048C601.09 245 601.618 246.552 602.674 247.704C603.762 248.856 605.186 249.432 606.946 249.432Z" fill="white"/>
<rect x="199" y="292" width="582" height="140" fill="#72B555"/>
<rect x="199" y="292" width="582" height="140" stroke="white" stroke-width="4"/>
<path d="M462.676 332.788C459.924 332.788 457.756 331.94 456.172 330.244L457.732 328.084C459.108 329.556 460.796 330.292 462.796 330.292C463.868 330.292 464.668 330.076 465.196 329.644C465.74 329.212 466.012 328.7 466.012 328.108C466.012 327.5 465.692 327.02 465.052 326.668C464.412 326.3 463.636 326.012 462.724 325.804C461.812 325.596 460.892 325.348 459.964 325.06C459.052 324.772 458.276 324.284 457.636 323.596C456.996 322.908 456.676 322.02 456.676 320.932C456.676 319.588 457.212 318.476 458.284 317.596C459.372 316.7 460.78 316.252 462.508 316.252C464.972 316.252 466.972 316.996 468.508 318.484L466.9 320.572C465.684 319.356 464.14 318.748 462.268 318.748C461.436 318.748 460.772 318.932 460.276 319.3C459.796 319.652 459.556 320.132 459.556 320.74C459.556 321.14 459.724 321.476 460.06 321.748C460.412 322.02 460.86 322.244 461.404 322.42C461.948 322.58 462.548 322.74 463.204 322.9C463.876 323.06 464.54 323.26 465.196 323.5C465.868 323.724 466.476 324.004 467.02 324.34C467.564 324.676 468.004 325.14 468.34 325.732C468.692 326.324 468.868 327.028 468.868 327.844C468.868 329.284 468.348 330.468 467.308 331.396C466.268 332.324 464.724 332.788 462.676 332.788ZM474.51 332.788C473.534 332.788 472.79 332.532 472.278 332.02C471.782 331.508 471.534 330.772 471.534 329.812V323.116H469.614V320.908H471.534V317.74H474.054V320.908H476.406V323.116H474.054V329.188C474.054 329.604 474.15 329.94 474.342 330.196C474.534 330.436 474.806 330.556 475.158 330.556C475.67 330.556 476.046 330.42 476.286 330.148L476.886 332.044C476.358 332.54 475.566 332.788 474.51 332.788ZM484.047 332.788C482.287 332.788 480.831 332.228 479.679 331.108C478.543 329.972 477.975 328.5 477.975 326.692C477.975 324.996 478.527 323.564 479.631 322.396C480.751 321.212 482.159 320.62 483.855 320.62C485.567 320.62 486.943 321.212 487.983 322.396C489.039 323.58 489.567 325.092 489.567 326.932V327.532H480.615C480.711 328.444 481.087 329.204 481.743 329.812C482.399 330.42 483.255 330.724 484.311 330.724C484.903 330.724 485.495 330.612 486.087 330.388C486.695 330.164 487.199 329.852 487.599 329.452L488.751 331.108C487.583 332.228 486.015 332.788 484.047 332.788ZM487.119 325.756C487.087 324.956 486.791 324.244 486.231 323.62C485.687 322.996 484.895 322.684 483.855 322.684C482.863 322.684 482.087 322.996 481.527 323.62C480.967 324.228 480.655 324.94 480.59 325.756H487.119ZM498.294 332.788C496.758 332.788 495.518 332.156 494.574 330.892V336.916H492.054V320.908H494.574V322.492C495.502 321.244 496.742 320.62 498.294 320.62C499.814 320.62 501.046 321.164 501.99 322.252C502.95 323.34 503.43 324.82 503.43 326.692C503.43 328.564 502.95 330.052 501.99 331.156C501.046 332.244 499.814 332.788 498.294 332.788ZM497.55 330.556C498.542 330.556 499.334 330.196 499.926 329.476C500.518 328.756 500.814 327.828 500.814 326.692C500.814 325.556 500.518 324.636 499.926 323.932C499.334 323.212 498.542 322.852 497.55 322.852C496.974 322.852 496.406 323.004 495.846 323.308C495.286 323.612 494.862 323.98 494.574 324.412V328.996C494.862 329.428 495.286 329.796 495.846 330.1C496.406 330.404 496.974 330.556 497.55 330.556ZM517.085 332.788C515.725 332.788 514.517 332.548 513.461 332.068C512.421 331.588 511.613 330.964 511.037 330.196L512.549 328.348C513.061 328.94 513.717 329.412 514.517 329.764C515.317 330.116 516.141 330.292 516.989 330.292C518.029 330.292 518.845 330.076 519.437 329.644C520.029 329.196 520.325 328.596 520.325 327.844C520.325 326.34 519.141 325.588 516.773 325.588C515.701 325.588 515.085 325.596 514.925 325.612V323.092C515.117 323.108 515.733 323.116 516.773 323.116C517.765 323.116 518.557 322.94 519.149 322.588C519.757 322.236 520.061 321.708 520.061 321.004C520.061 320.284 519.757 319.732 519.149 319.348C518.541 318.948 517.765 318.748 516.821 318.748C515.253 318.748 513.877 319.34 512.693 320.524L511.253 318.772C512.677 317.092 514.621 316.252 517.085 316.252C518.829 316.252 520.229 316.644 521.285 317.428C522.341 318.196 522.869 319.244 522.869 320.572C522.869 321.564 522.517 322.388 521.813 323.044C521.125 323.684 520.317 324.084 519.389 324.244C520.301 324.324 521.149 324.708 521.933 325.396C522.717 326.084 523.109 326.996 523.109 328.132C523.109 329.508 522.557 330.628 521.453 331.492C520.365 332.356 518.909 332.788 517.085 332.788Z" fill="white"/>
<path d="M384.484 399.5H377.668V367.484H392.644C396.004 367.484 398.628 368.476 400.516 370.46C402.436 372.412 403.396 374.86 403.396 377.804C403.396 380.716 402.436 383.164 400.516 385.148C398.596 387.132 395.972 388.124 392.644 388.124H384.484V399.5ZM391.732 382.124C393.108 382.124 394.228 381.74 395.092 380.972C395.988 380.172 396.436 379.116 396.436 377.804C396.436 376.492 395.988 375.452 395.092 374.684C394.228 373.884 393.108 373.484 391.732 373.484H384.484V382.124H391.732ZM413.573 399.5H407.477V367.484H413.573V399.5ZM439.634 399.5H433.538V397.1C431.874 399.084 429.426 400.076 426.194 400.076C424.114 400.076 422.242 399.404 420.578 398.06C418.946 396.684 418.13 394.796 418.13 392.396C418.13 389.9 418.93 388.028 420.53 386.78C422.162 385.532 424.05 384.908 426.194 384.908C429.49 384.908 431.938 385.852 433.538 387.74V384.62C433.538 383.436 433.074 382.492 432.146 381.788C431.218 381.084 429.986 380.732 428.45 380.732C425.922 380.732 423.666 381.644 421.682 383.468L419.378 379.388C422.13 376.956 425.506 375.74 429.506 375.74C432.482 375.74 434.914 376.428 436.802 377.804C438.69 379.18 439.634 381.42 439.634 384.524V399.5ZM428.642 395.948C430.914 395.948 432.546 395.276 433.538 393.932V391.052C432.546 389.708 430.914 389.036 428.642 389.036C427.394 389.036 426.354 389.356 425.522 389.996C424.69 390.604 424.274 391.452 424.274 392.54C424.274 393.596 424.69 394.428 425.522 395.036C426.354 395.644 427.394 395.948 428.642 395.948ZM456.48 400.076C452.896 400.076 449.952 398.94 447.648 396.668C445.344 394.396 444.192 391.468 444.192 387.884C444.192 384.332 445.344 381.42 447.648 379.148C449.952 376.876 452.896 375.74 456.48 375.74C460.576 375.74 463.632 377.132 465.648 379.916L461.664 383.66C460.544 381.996 458.912 381.164 456.768 381.164C454.912 381.164 453.392 381.788 452.208 383.036C451.056 384.252 450.48 385.868 450.48 387.884C450.48 389.9 451.056 391.532 452.208 392.78C453.392 394.028 454.912 394.652 456.768 394.652C458.848 394.652 460.48 393.82 461.664 392.156L465.648 395.852C463.632 398.668 460.576 400.076 456.48 400.076ZM480.529 400.076C476.945 400.076 473.985 398.956 471.649 396.716C469.313 394.476 468.145 391.532 468.145 387.884C468.145 384.46 469.265 381.58 471.505 379.244C473.777 376.908 476.657 375.74 480.145 375.74C483.601 375.74 486.401 376.924 488.545 379.292C490.689 381.628 491.761 384.7 491.761 388.508V389.852H474.529C474.721 391.388 475.409 392.668 476.593 393.692C477.777 394.716 479.313 395.228 481.201 395.228C482.225 395.228 483.329 395.02 484.513 394.604C485.729 394.188 486.689 393.628 487.393 392.924L490.081 396.86C487.745 399.004 484.561 400.076 480.529 400.076ZM485.857 385.724C485.761 384.412 485.233 383.228 484.273 382.172C483.345 381.116 481.969 380.588 480.145 380.588C478.417 380.588 477.073 381.116 476.113 382.172C475.153 383.196 474.593 384.38 474.433 385.724H485.857ZM531.061 399.5H524.917V384.86C524.917 382.396 523.765 381.164 521.461 381.164C520.469 381.164 519.541 381.436 518.677 381.98C517.845 382.524 517.173 383.148 516.661 383.852V399.5H510.517V384.86C510.517 382.396 509.365 381.164 507.061 381.164C506.101 381.164 505.189 381.436 504.325 381.98C503.461 382.524 502.773 383.164 502.261 383.9V399.5H496.165V376.316H502.261V379.34C502.837 378.508 503.845 377.708 505.285 376.94C506.725 376.14 508.245 375.74 509.845 375.74C513.205 375.74 515.349 377.148 516.277 379.964C517.013 378.812 518.101 377.82 519.541 376.988C521.013 376.156 522.581 375.74 524.245 375.74C526.421 375.74 528.101 376.332 529.285 377.516C530.469 378.668 531.061 380.412 531.061 382.748V399.5ZM547.936 400.076C544.352 400.076 541.392 398.956 539.056 396.716C536.72 394.476 535.552 391.532 535.552 387.884C535.552 384.46 536.672 381.58 538.912 379.244C541.184 376.908 544.064 375.74 547.552 375.74C551.008 375.74 553.808 376.924 555.952 379.292C558.096 381.628 559.168 384.7 559.168 388.508V389.852H541.936C542.128 391.388 542.816 392.668 544 393.692C545.184 394.716 546.72 395.228 548.608 395.228C549.632 395.228 550.736 395.02 551.92 394.604C553.136 394.188 554.096 393.628 554.8 392.924L557.488 396.86C555.152 399.004 551.968 400.076 547.936 400.076ZM553.264 385.724C553.168 384.412 552.64 383.228 551.68 382.172C550.752 381.116 549.376 380.588 547.552 380.588C545.824 380.588 544.48 381.116 543.52 382.172C542.56 383.196 542 384.38 541.84 385.724H553.264ZM585.315 399.5H579.219V385.484C579.219 382.604 577.795 381.164 574.947 381.164C572.739 381.164 570.979 382.076 569.667 383.9V399.5H563.571V376.316H569.667V379.34C571.683 376.94 574.387 375.74 577.779 375.74C580.275 375.74 582.147 376.396 583.395 377.708C584.675 379.02 585.315 380.828 585.315 383.132V399.5ZM599.144 400.076C597 400.076 595.368 399.532 594.248 398.444C593.128 397.356 592.568 395.788 592.568 393.74V381.644H588.728V376.316H592.568V369.98H598.712V376.316H603.416V381.644H598.712V392.108C598.712 392.844 598.904 393.452 599.288 393.932C599.672 394.412 600.184 394.652 600.824 394.652C601.784 394.652 602.488 394.428 602.936 393.98L604.232 398.588C603.112 399.58 601.416 400.076 599.144 400.076Z" fill="white"/>
<rect x="124" y="436" width="732" height="141" fill="#F79221"/>
<rect x="124" y="436" width="732" height="141" stroke="white" stroke-width="4"/>
<path d="M462.176 477.288C459.424 477.288 457.256 476.44 455.672 474.744L457.232 472.584C458.608 474.056 460.296 474.792 462.296 474.792C463.368 474.792 464.168 474.576 464.696 474.144C465.24 473.712 465.512 473.2 465.512 472.608C465.512 472 465.192 471.52 464.552 471.168C463.912 470.8 463.136 470.512 462.224 470.304C461.312 470.096 460.392 469.848 459.464 469.56C458.552 469.272 457.776 468.784 457.136 468.096C456.496 467.408 456.176 466.52 456.176 465.432C456.176 464.088 456.712 462.976 457.784 462.096C458.872 461.2 460.28 460.752 462.008 460.752C464.472 460.752 466.472 461.496 468.008 462.984L466.4 465.072C465.184 463.856 463.64 463.248 461.768 463.248C460.936 463.248 460.272 463.432 459.776 463.8C459.296 464.152 459.056 464.632 459.056 465.24C459.056 465.64 459.224 465.976 459.56 466.248C459.912 466.52 460.36 466.744 460.904 466.92C461.448 467.08 462.048 467.24 462.704 467.4C463.376 467.56 464.04 467.76 464.696 468C465.368 468.224 465.976 468.504 466.52 468.84C467.064 469.176 467.504 469.64 467.84 470.232C468.192 470.824 468.368 471.528 468.368 472.344C468.368 473.784 467.848 474.968 466.808 475.896C465.768 476.824 464.224 477.288 462.176 477.288ZM474.01 477.288C473.034 477.288 472.29 477.032 471.778 476.52C471.282 476.008 471.034 475.272 471.034 474.312V467.616H469.114V465.408H471.034V462.24H473.554V465.408H475.906V467.616H473.554V473.688C473.554 474.104 473.65 474.44 473.842 474.696C474.034 474.936 474.306 475.056 474.658 475.056C475.17 475.056 475.546 474.92 475.786 474.648L476.386 476.544C475.858 477.04 475.066 477.288 474.01 477.288ZM483.547 477.288C481.787 477.288 480.331 476.728 479.179 475.608C478.043 474.472 477.475 473 477.475 471.192C477.475 469.496 478.027 468.064 479.131 466.896C480.251 465.712 481.659 465.12 483.355 465.12C485.067 465.12 486.443 465.712 487.483 466.896C488.539 468.08 489.067 469.592 489.067 471.432V472.032H480.115C480.211 472.944 480.587 473.704 481.243 474.312C481.899 474.92 482.755 475.224 483.811 475.224C484.403 475.224 484.995 475.112 485.587 474.888C486.195 474.664 486.699 474.352 487.099 473.952L488.251 475.608C487.083 476.728 485.515 477.288 483.547 477.288ZM486.619 470.256C486.587 469.456 486.291 468.744 485.731 468.12C485.187 467.496 484.395 467.184 483.355 467.184C482.363 467.184 481.587 467.496 481.027 468.12C480.467 468.728 480.155 469.44 480.09 470.256H486.619ZM497.794 477.288C496.258 477.288 495.018 476.656 494.074 475.392V481.416H491.554V465.408H494.074V466.992C495.002 465.744 496.242 465.12 497.794 465.12C499.314 465.12 500.546 465.664 501.49 466.752C502.45 467.84 502.93 469.32 502.93 471.192C502.93 473.064 502.45 474.552 501.49 475.656C500.546 476.744 499.314 477.288 497.794 477.288ZM497.05 475.056C498.042 475.056 498.834 474.696 499.426 473.976C500.018 473.256 500.314 472.328 500.314 471.192C500.314 470.056 500.018 469.136 499.426 468.432C498.834 467.712 498.042 467.352 497.05 467.352C496.474 467.352 495.906 467.504 495.346 467.808C494.786 468.112 494.362 468.48 494.074 468.912V473.496C494.362 473.928 494.786 474.296 495.346 474.6C495.906 474.904 496.474 475.056 497.05 475.056ZM522.753 477H511.161V474.792C514.505 472.264 516.777 470.392 517.977 469.176C519.193 467.944 519.801 466.784 519.801 465.696C519.801 464.912 519.513 464.312 518.937 463.896C518.377 463.464 517.697 463.248 516.897 463.248C515.137 463.248 513.697 463.888 512.577 465.168L510.945 463.32C511.633 462.488 512.497 461.856 513.537 461.424C514.593 460.976 515.697 460.752 516.849 460.752C518.481 460.752 519.857 461.192 520.977 462.072C522.097 462.952 522.657 464.16 522.657 465.696C522.657 467.072 522.081 468.44 520.929 469.8C519.777 471.16 518.017 472.736 515.649 474.528H522.753V477Z" fill="white"/>
<path d="M378.336 544.576C373.504 544.576 369.504 543.024 366.336 539.92C363.2 536.784 361.632 532.816 361.632 528.016C361.632 523.216 363.2 519.264 366.336 516.16C369.504 513.024 373.504 511.456 378.336 511.456C383.2 511.456 387.2 513.008 390.336 516.112C393.504 519.216 395.088 523.184 395.088 528.016C395.088 532.848 393.504 536.816 390.336 539.92C387.2 543.024 383.2 544.576 378.336 544.576ZM371.28 535.552C373.072 537.536 375.424 538.528 378.336 538.528C381.248 538.528 383.6 537.536 385.392 535.552C387.184 533.568 388.08 531.056 388.08 528.016C388.08 524.976 387.184 522.464 385.392 520.48C383.6 518.496 381.248 517.504 378.336 517.504C375.424 517.504 373.072 518.496 371.28 520.48C369.52 522.464 368.64 524.976 368.64 528.016C368.64 531.056 369.52 533.568 371.28 535.552ZM421.471 544H415.375V529.984C415.375 527.104 413.951 525.664 411.103 525.664C408.895 525.664 407.135 526.576 405.823 528.4V544H399.727V520.816H405.823V523.84C407.839 521.44 410.543 520.24 413.935 520.24C416.431 520.24 418.303 520.896 419.551 522.208C420.831 523.52 421.471 525.328 421.471 527.632V544ZM433.62 536.56C434.132 537.296 434.884 537.92 435.876 538.432C436.868 538.912 437.86 539.152 438.852 539.152C440.612 539.152 442.036 538.544 443.124 537.328C444.212 536.08 444.756 534.448 444.756 532.432C444.756 530.416 444.212 528.784 443.124 527.536C442.036 526.288 440.612 525.664 438.852 525.664C437.86 525.664 436.868 525.92 435.876 526.432C434.884 526.944 434.132 527.584 433.62 528.352V536.56ZM433.62 544H427.524V511.984H433.62V523.792C435.444 521.424 437.828 520.24 440.772 520.24C443.78 520.24 446.244 521.344 448.164 523.552C450.084 525.76 451.044 528.72 451.044 532.432C451.044 536.208 450.084 539.184 448.164 541.36C446.244 543.504 443.78 544.576 440.772 544.576C437.892 544.576 435.508 543.392 433.62 541.024V544ZM475.329 541.072C473.089 543.408 470.113 544.576 466.401 544.576C462.689 544.576 459.713 543.408 457.473 541.072C455.265 538.704 454.161 535.808 454.161 532.384C454.161 528.96 455.265 526.08 457.473 523.744C459.713 521.408 462.689 520.24 466.401 520.24C470.113 520.24 473.089 521.408 475.329 523.744C477.569 526.08 478.689 528.96 478.689 532.384C478.689 535.808 477.569 538.704 475.329 541.072ZM462.081 537.232C463.137 538.512 464.577 539.152 466.401 539.152C468.225 539.152 469.665 538.512 470.721 537.232C471.809 535.92 472.353 534.304 472.353 532.384C472.353 530.496 471.809 528.912 470.721 527.632C469.665 526.32 468.225 525.664 466.401 525.664C464.577 525.664 463.137 526.32 462.081 527.632C461.025 528.912 460.497 530.496 460.497 532.384C460.497 534.304 461.025 535.92 462.081 537.232ZM503.228 544H497.132V541.6C495.468 543.584 493.02 544.576 489.788 544.576C487.708 544.576 485.836 543.904 484.172 542.56C482.54 541.184 481.724 539.296 481.724 536.896C481.724 534.4 482.524 532.528 484.124 531.28C485.756 530.032 487.644 529.408 489.788 529.408C493.084 529.408 495.532 530.352 497.132 532.24V529.12C497.132 527.936 496.668 526.992 495.74 526.288C494.812 525.584 493.58 525.232 492.044 525.232C489.516 525.232 487.26 526.144 485.276 527.968L482.972 523.888C485.724 521.456 489.1 520.24 493.1 520.24C496.076 520.24 498.508 520.928 500.396 522.304C502.284 523.68 503.228 525.92 503.228 529.024V544ZM492.236 540.448C494.508 540.448 496.14 539.776 497.132 538.432V535.552C496.14 534.208 494.508 533.536 492.236 533.536C490.988 533.536 489.948 533.856 489.116 534.496C488.284 535.104 487.868 535.952 487.868 537.04C487.868 538.096 488.284 538.928 489.116 539.536C489.948 540.144 490.988 540.448 492.236 540.448ZM515.37 544H509.274V520.816H515.37V523.984C516.234 522.896 517.338 522 518.682 521.296C520.026 520.592 521.386 520.24 522.762 520.24V526.192C522.346 526.096 521.786 526.048 521.082 526.048C520.058 526.048 518.97 526.304 517.818 526.816C516.666 527.328 515.85 527.952 515.37 528.688V544ZM548.651 544H542.507V541.024C540.619 543.392 538.235 544.576 535.355 544.576C532.347 544.576 529.883 543.504 527.963 541.36C526.043 539.184 525.083 536.208 525.083 532.432C525.083 528.72 526.043 525.76 527.963 523.552C529.883 521.344 532.347 520.24 535.355 520.24C538.299 520.24 540.683 521.424 542.507 523.792V511.984H548.651V544ZM537.227 539.152C538.251 539.152 539.259 538.912 540.251 538.432C541.243 537.92 541.995 537.28 542.507 536.512V528.304C541.995 527.536 541.243 526.912 540.251 526.432C539.259 525.92 538.251 525.664 537.227 525.664C535.499 525.664 534.091 526.288 533.003 527.536C531.915 528.784 531.371 530.416 531.371 532.432C531.371 534.416 531.915 536.032 533.003 537.28C534.091 538.528 535.499 539.152 537.227 539.152ZM557.72 518.32C556.728 518.32 555.864 517.968 555.128 517.264C554.424 516.528 554.072 515.664 554.072 514.672C554.072 513.68 554.424 512.832 555.128 512.128C555.864 511.424 556.728 511.072 557.72 511.072C558.744 511.072 559.608 511.424 560.312 512.128C561.016 512.832 561.368 513.68 561.368 514.672C561.368 515.664 561.016 516.528 560.312 517.264C559.608 517.968 558.744 518.32 557.72 518.32ZM560.792 544H554.696V520.816H560.792V544ZM588.581 544H582.485V529.984C582.485 527.104 581.061 525.664 578.213 525.664C576.005 525.664 574.245 526.576 572.933 528.4V544H566.837V520.816H572.933V523.84C574.949 521.44 577.653 520.24 581.045 520.24C583.541 520.24 585.413 520.896 586.661 522.208C587.941 523.52 588.581 525.328 588.581 527.632V544ZM604.137 553.408C600.137 553.408 596.809 552.256 594.153 549.952L596.889 545.536C598.617 547.456 601.033 548.416 604.137 548.416C605.865 548.416 607.353 547.952 608.601 547.024C609.881 546.128 610.521 544.64 610.521 542.56V540.208C608.601 542.64 606.217 543.856 603.369 543.856C600.361 543.856 597.897 542.832 595.977 540.784C594.089 538.704 593.145 535.792 593.145 532.048C593.145 528.336 594.089 525.44 595.977 523.36C597.897 521.28 600.361 520.24 603.369 520.24C606.249 520.24 608.633 521.424 610.521 523.792V520.816H616.665V542.416C616.665 544.528 616.281 546.336 615.513 547.84C614.777 549.344 613.769 550.48 612.489 551.248C611.209 552.016 609.881 552.56 608.505 552.88C607.161 553.232 605.705 553.408 604.137 553.408ZM605.289 538.432C606.281 538.432 607.273 538.176 608.265 537.664C609.257 537.152 610.009 536.528 610.521 535.792V528.304C610.009 527.536 609.257 526.912 608.265 526.432C607.305 525.92 606.313 525.664 605.289 525.664C603.529 525.664 602.105 526.24 601.017 527.392C599.961 528.544 599.433 530.096 599.433 532.048C599.433 534 599.961 535.552 601.017 536.704C602.105 537.856 603.529 538.432 605.289 538.432Z" fill="white"/>
<rect x="64" y="581" width="852" height="141" fill="#F79221"/>
<rect x="64" y="581" width="852" height="141" stroke="white" stroke-width="4"/>
<path d="M462.176 622.288C459.424 622.288 457.256 621.44 455.672 619.744L457.232 617.584C458.608 619.056 460.296 619.792 462.296 619.792C463.368 619.792 464.168 619.576 464.696 619.144C465.24 618.712 465.512 618.2 465.512 617.608C465.512 617 465.192 616.52 464.552 616.168C463.912 615.8 463.136 615.512 462.224 615.304C461.312 615.096 460.392 614.848 459.464 614.56C458.552 614.272 457.776 613.784 457.136 613.096C456.496 612.408 456.176 611.52 456.176 610.432C456.176 609.088 456.712 607.976 457.784 607.096C458.872 606.2 460.28 605.752 462.008 605.752C464.472 605.752 466.472 606.496 468.008 607.984L466.4 610.072C465.184 608.856 463.64 608.248 461.768 608.248C460.936 608.248 460.272 608.432 459.776 608.8C459.296 609.152 459.056 609.632 459.056 610.24C459.056 610.64 459.224 610.976 459.56 611.248C459.912 611.52 460.36 611.744 460.904 611.92C461.448 612.08 462.048 612.24 462.704 612.4C463.376 612.56 464.04 612.76 464.696 613C465.368 613.224 465.976 613.504 466.52 613.84C467.064 614.176 467.504 614.64 467.84 615.232C468.192 615.824 468.368 616.528 468.368 617.344C468.368 618.784 467.848 619.968 466.808 620.896C465.768 621.824 464.224 622.288 462.176 622.288ZM474.01 622.288C473.034 622.288 472.29 622.032 471.778 621.52C471.282 621.008 471.034 620.272 471.034 619.312V612.616H469.114V610.408H471.034V607.24H473.554V610.408H475.906V612.616H473.554V618.688C473.554 619.104 473.65 619.44 473.842 619.696C474.034 619.936 474.306 620.056 474.658 620.056C475.17 620.056 475.546 619.92 475.786 619.648L476.386 621.544C475.858 622.04 475.066 622.288 474.01 622.288ZM483.547 622.288C481.787 622.288 480.331 621.728 479.179 620.608C478.043 619.472 477.475 618 477.475 616.192C477.475 614.496 478.027 613.064 479.131 611.896C480.251 610.712 481.659 610.12 483.355 610.12C485.067 610.12 486.443 610.712 487.483 611.896C488.539 613.08 489.067 614.592 489.067 616.432V617.032H480.115C480.211 617.944 480.587 618.704 481.243 619.312C481.899 619.92 482.755 620.224 483.811 620.224C484.403 620.224 484.995 620.112 485.587 619.888C486.195 619.664 486.699 619.352 487.099 618.952L488.251 620.608C487.083 621.728 485.515 622.288 483.547 622.288ZM486.619 615.256C486.587 614.456 486.291 613.744 485.731 613.12C485.187 612.496 484.395 612.184 483.355 612.184C482.363 612.184 481.587 612.496 481.027 613.12C480.467 613.728 480.155 614.44 480.09 615.256H486.619ZM497.794 622.288C496.258 622.288 495.018 621.656 494.074 620.392V626.416H491.554V610.408H494.074V611.992C495.002 610.744 496.242 610.12 497.794 610.12C499.314 610.12 500.546 610.664 501.49 611.752C502.45 612.84 502.93 614.32 502.93 616.192C502.93 618.064 502.45 619.552 501.49 620.656C500.546 621.744 499.314 622.288 497.794 622.288ZM497.05 620.056C498.042 620.056 498.834 619.696 499.426 618.976C500.018 618.256 500.314 617.328 500.314 616.192C500.314 615.056 500.018 614.136 499.426 613.432C498.834 612.712 498.042 612.352 497.05 612.352C496.474 612.352 495.906 612.504 495.346 612.808C494.786 613.112 494.362 613.48 494.074 613.912V618.496C494.362 618.928 494.786 619.296 495.346 619.6C495.906 619.904 496.474 620.056 497.05 620.056ZM522.753 622H511.161V619.792C514.505 617.264 516.777 615.392 517.977 614.176C519.193 612.944 519.801 611.784 519.801 610.696C519.801 609.912 519.513 609.312 518.937 608.896C518.377 608.464 517.697 608.248 516.897 608.248C515.137 608.248 513.697 608.888 512.577 610.168L510.945 608.32C511.633 607.488 512.497 606.856 513.537 606.424C514.593 605.976 515.697 605.752 516.849 605.752C518.481 605.752 519.857 606.192 520.977 607.072C522.097 607.952 522.657 609.16 522.657 610.696C522.657 612.072 522.081 613.44 520.929 614.8C519.777 616.16 518.017 617.736 515.649 619.528H522.753V622Z" fill="white"/>
<path d="M403.544 689.576C397.848 689.576 393.336 687.88 390.008 684.488L393.704 679.304C396.456 682.184 399.848 683.624 403.88 683.624C405.64 683.624 407 683.288 407.96 682.616C408.952 681.912 409.448 681.064 409.448 680.072C409.448 679.208 408.984 678.488 408.056 677.912C407.16 677.336 406.024 676.92 404.648 676.664C403.304 676.408 401.832 676.04 400.232 675.56C398.632 675.08 397.144 674.536 395.768 673.928C394.424 673.32 393.288 672.36 392.36 671.048C391.464 669.736 391.016 668.136 391.016 666.248C391.016 663.496 392.12 661.192 394.328 659.336C396.536 657.448 399.48 656.504 403.16 656.504C408.248 656.504 412.408 657.992 415.64 660.968L411.848 665.96C409.32 663.624 406.216 662.456 402.536 662.456C401.096 662.456 399.976 662.744 399.176 663.32C398.376 663.896 397.976 664.68 397.976 665.672C397.976 666.44 398.424 667.096 399.32 667.64C400.248 668.152 401.384 668.536 402.728 668.792C404.104 669.048 405.576 669.432 407.144 669.944C408.744 670.424 410.216 670.984 411.56 671.624C412.936 672.232 414.072 673.208 414.968 674.552C415.896 675.864 416.36 677.448 416.36 679.304C416.36 682.376 415.256 684.856 413.048 686.744C410.872 688.632 407.704 689.576 403.544 689.576ZM431.701 689.576C428.117 689.576 425.157 688.456 422.821 686.216C420.485 683.976 419.317 681.032 419.317 677.384C419.317 673.96 420.437 671.08 422.677 668.744C424.949 666.408 427.829 665.24 431.317 665.24C434.773 665.24 437.573 666.424 439.717 668.792C441.861 671.128 442.933 674.2 442.933 678.008V679.352H425.701C425.893 680.888 426.581 682.168 427.765 683.192C428.949 684.216 430.485 684.728 432.373 684.728C433.397 684.728 434.501 684.52 435.685 684.104C436.901 683.688 437.861 683.128 438.565 682.424L441.253 686.36C438.917 688.504 435.733 689.576 431.701 689.576ZM437.029 675.224C436.933 673.912 436.405 672.728 435.445 671.672C434.517 670.616 433.141 670.088 431.317 670.088C429.589 670.088 428.245 670.616 427.285 671.672C426.325 672.696 425.765 673.88 425.605 675.224H437.029ZM453.433 689H447.337V656.984H453.433V689ZM470.373 689.576C466.789 689.576 463.829 688.456 461.493 686.216C459.157 683.976 457.989 681.032 457.989 677.384C457.989 673.96 459.109 671.08 461.349 668.744C463.621 666.408 466.501 665.24 469.989 665.24C473.445 665.24 476.245 666.424 478.389 668.792C480.533 671.128 481.605 674.2 481.605 678.008V679.352H464.373C464.565 680.888 465.253 682.168 466.437 683.192C467.621 684.216 469.157 684.728 471.045 684.728C472.069 684.728 473.173 684.52 474.357 684.104C475.573 683.688 476.533 683.128 477.237 682.424L479.925 686.36C477.589 688.504 474.405 689.576 470.373 689.576ZM475.701 675.224C475.605 673.912 475.077 672.728 474.117 671.672C473.189 670.616 471.813 670.088 469.989 670.088C468.261 670.088 466.917 670.616 465.957 671.672C464.997 672.696 464.437 673.88 464.277 675.224H475.701ZM496.808 689.576C493.224 689.576 490.28 688.44 487.976 686.168C485.672 683.896 484.52 680.968 484.52 677.384C484.52 673.832 485.672 670.92 487.976 668.648C490.28 666.376 493.224 665.24 496.808 665.24C500.904 665.24 503.96 666.632 505.976 669.416L501.992 673.16C500.872 671.496 499.24 670.664 497.096 670.664C495.24 670.664 493.72 671.288 492.536 672.536C491.384 673.752 490.808 675.368 490.808 677.384C490.808 679.4 491.384 681.032 492.536 682.28C493.72 683.528 495.24 684.152 497.096 684.152C499.176 684.152 500.808 683.32 501.992 681.656L505.976 685.352C503.96 688.168 500.904 689.576 496.808 689.576ZM517.738 689.576C515.594 689.576 513.962 689.032 512.842 687.944C511.722 686.856 511.162 685.288 511.162 683.24V671.144H507.322V665.816H511.162V659.48H517.306V665.816H522.01V671.144H517.306V681.608C517.306 682.344 517.498 682.952 517.882 683.432C518.266 683.912 518.778 684.152 519.418 684.152C520.378 684.152 521.082 683.928 521.53 683.48L522.826 688.088C521.706 689.08 520.01 689.576 517.738 689.576ZM529.204 663.32C528.212 663.32 527.348 662.968 526.612 662.264C525.908 661.528 525.556 660.664 525.556 659.672C525.556 658.68 525.908 657.832 526.612 657.128C527.348 656.424 528.212 656.072 529.204 656.072C530.228 656.072 531.092 656.424 531.796 657.128C532.5 657.832 532.852 658.68 532.852 659.672C532.852 660.664 532.5 661.528 531.796 662.264C531.092 662.968 530.228 663.32 529.204 663.32ZM532.276 689H526.18V665.816H532.276V689ZM558.001 686.072C555.761 688.408 552.785 689.576 549.073 689.576C545.361 689.576 542.385 688.408 540.145 686.072C537.937 683.704 536.833 680.808 536.833 677.384C536.833 673.96 537.937 671.08 540.145 668.744C542.385 666.408 545.361 665.24 549.073 665.24C552.785 665.24 555.761 666.408 558.001 668.744C560.241 671.08 561.361 673.96 561.361 677.384C561.361 680.808 560.241 683.704 558.001 686.072ZM544.753 682.232C545.809 683.512 547.249 684.152 549.073 684.152C550.897 684.152 552.337 683.512 553.393 682.232C554.481 680.92 555.025 679.304 555.025 677.384C555.025 675.496 554.481 673.912 553.393 672.632C552.337 671.32 550.897 670.664 549.073 670.664C547.249 670.664 545.809 671.32 544.753 672.632C543.697 673.912 543.169 675.496 543.169 677.384C543.169 679.304 543.697 680.92 544.753 682.232ZM587.627 689H581.531V674.984C581.531 672.104 580.107 670.664 577.259 670.664C575.051 670.664 573.291 671.576 571.979 673.4V689H565.883V665.816H571.979V668.84C573.995 666.44 576.699 665.24 580.091 665.24C582.587 665.24 584.459 665.896 585.707 667.208C586.987 668.52 587.627 670.328 587.627 672.632V689Z" fill="white"/>
<rect x="2.5" y="726" width="975" height="141" fill="#8D2E91"/>
<rect x="2.5" y="726" width="975" height="141" stroke="white" stroke-width="4"/>
<path d="M464.676 767.288C461.924 767.288 459.756 766.44 458.172 764.744L459.732 762.584C461.108 764.056 462.796 764.792 464.796 764.792C465.868 764.792 466.668 764.576 467.196 764.144C467.74 763.712 468.012 763.2 468.012 762.608C468.012 762 467.692 761.52 467.052 761.168C466.412 760.8 465.636 760.512 464.724 760.304C463.812 760.096 462.892 759.848 461.964 759.56C461.052 759.272 460.276 758.784 459.636 758.096C458.996 757.408 458.676 756.52 458.676 755.432C458.676 754.088 459.212 752.976 460.284 752.096C461.372 751.2 462.78 750.752 464.508 750.752C466.972 750.752 468.972 751.496 470.508 752.984L468.9 755.072C467.684 753.856 466.14 753.248 464.268 753.248C463.436 753.248 462.772 753.432 462.276 753.8C461.796 754.152 461.556 754.632 461.556 755.24C461.556 755.64 461.724 755.976 462.06 756.248C462.412 756.52 462.86 756.744 463.404 756.92C463.948 757.08 464.548 757.24 465.204 757.4C465.876 757.56 466.54 757.76 467.196 758C467.868 758.224 468.476 758.504 469.02 758.84C469.564 759.176 470.004 759.64 470.34 760.232C470.692 760.824 470.868 761.528 470.868 762.344C470.868 763.784 470.348 764.968 469.308 765.896C468.268 766.824 466.724 767.288 464.676 767.288ZM476.51 767.288C475.534 767.288 474.79 767.032 474.278 766.52C473.782 766.008 473.534 765.272 473.534 764.312V757.616H471.614V755.408H473.534V752.24H476.054V755.408H478.406V757.616H476.054V763.688C476.054 764.104 476.15 764.44 476.342 764.696C476.534 764.936 476.806 765.056 477.158 765.056C477.67 765.056 478.046 764.92 478.286 764.648L478.886 766.544C478.358 767.04 477.566 767.288 476.51 767.288ZM486.047 767.288C484.287 767.288 482.831 766.728 481.679 765.608C480.543 764.472 479.975 763 479.975 761.192C479.975 759.496 480.527 758.064 481.631 756.896C482.751 755.712 484.159 755.12 485.855 755.12C487.567 755.12 488.943 755.712 489.983 756.896C491.039 758.08 491.567 759.592 491.567 761.432V762.032H482.615C482.711 762.944 483.087 763.704 483.743 764.312C484.399 764.92 485.255 765.224 486.311 765.224C486.903 765.224 487.495 765.112 488.087 764.888C488.695 764.664 489.199 764.352 489.599 763.952L490.751 765.608C489.583 766.728 488.015 767.288 486.047 767.288ZM489.119 760.256C489.087 759.456 488.791 758.744 488.231 758.12C487.687 757.496 486.895 757.184 485.855 757.184C484.863 757.184 484.087 757.496 483.527 758.12C482.967 758.728 482.655 759.44 482.59 760.256H489.119ZM500.294 767.288C498.758 767.288 497.518 766.656 496.574 765.392V771.416H494.054V755.408H496.574V756.992C497.502 755.744 498.742 755.12 500.294 755.12C501.814 755.12 503.046 755.664 503.99 756.752C504.95 757.84 505.43 759.32 505.43 761.192C505.43 763.064 504.95 764.552 503.99 765.656C503.046 766.744 501.814 767.288 500.294 767.288ZM499.55 765.056C500.542 765.056 501.334 764.696 501.926 763.976C502.518 763.256 502.814 762.328 502.814 761.192C502.814 760.056 502.518 759.136 501.926 758.432C501.334 757.712 500.542 757.352 499.55 757.352C498.974 757.352 498.406 757.504 497.846 757.808C497.286 758.112 496.862 758.48 496.574 758.912V763.496C496.862 763.928 497.286 764.296 497.846 764.6C498.406 764.904 498.974 765.056 499.55 765.056ZM519.877 767H517.069V754.64L514.453 757.352L512.821 755.648L517.429 750.992H519.877V767Z" fill="white"/>
<path d="M217.024 834H209.248L207.28 828.576H193.552L191.536 834H183.76L196.144 801.984H204.688L217.024 834ZM205.408 822.576L200.416 808.8L195.424 822.576H205.408ZM233.085 834.576C230.173 834.576 227.789 833.392 225.933 831.024V842.832H219.837V810.816H225.933V813.744C227.757 811.408 230.141 810.24 233.085 810.24C236.125 810.24 238.589 811.328 240.477 813.504C242.397 815.648 243.357 818.608 243.357 822.384C243.357 826.16 242.397 829.136 240.477 831.312C238.589 833.488 236.125 834.576 233.085 834.576ZM231.165 829.152C232.925 829.152 234.333 828.528 235.389 827.28C236.477 826.032 237.021 824.4 237.021 822.384C237.021 820.4 236.477 818.784 235.389 817.536C234.333 816.288 232.925 815.664 231.165 815.664C230.173 815.664 229.181 815.92 228.189 816.432C227.197 816.944 226.445 817.568 225.933 818.304V826.512C226.445 827.248 227.197 827.872 228.189 828.384C229.213 828.896 230.205 829.152 231.165 829.152ZM261.069 834.576C258.157 834.576 255.773 833.392 253.917 831.024V842.832H247.821V810.816H253.917V813.744C255.741 811.408 258.125 810.24 261.069 810.24C264.109 810.24 266.573 811.328 268.461 813.504C270.381 815.648 271.341 818.608 271.341 822.384C271.341 826.16 270.381 829.136 268.461 831.312C266.573 833.488 264.109 834.576 261.069 834.576ZM259.149 829.152C260.909 829.152 262.317 828.528 263.373 827.28C264.461 826.032 265.005 824.4 265.005 822.384C265.005 820.4 264.461 818.784 263.373 817.536C262.317 816.288 260.909 815.664 259.149 815.664C258.157 815.664 257.165 815.92 256.173 816.432C255.181 816.944 254.429 817.568 253.917 818.304V826.512C254.429 827.248 255.181 827.872 256.173 828.384C257.197 828.896 258.189 829.152 259.149 829.152ZM281.901 834H275.805V801.984H281.901V834ZM290.97 808.32C289.978 808.32 289.114 807.968 288.378 807.264C287.674 806.528 287.322 805.664 287.322 804.672C287.322 803.68 287.674 802.832 288.378 802.128C289.114 801.424 289.978 801.072 290.97 801.072C291.994 801.072 292.858 801.424 293.562 802.128C294.266 802.832 294.618 803.68 294.618 804.672C294.618 805.664 294.266 806.528 293.562 807.264C292.858 807.968 291.994 808.32 290.97 808.32ZM294.042 834H287.946V810.816H294.042V834ZM310.887 834.576C307.303 834.576 304.359 833.44 302.055 831.168C299.751 828.896 298.599 825.968 298.599 822.384C298.599 818.832 299.751 815.92 302.055 813.648C304.359 811.376 307.303 810.24 310.887 810.24C314.983 810.24 318.039 811.632 320.055 814.416L316.071 818.16C314.951 816.496 313.319 815.664 311.174 815.664C309.319 815.664 307.799 816.288 306.615 817.536C305.463 818.752 304.887 820.368 304.887 822.384C304.887 824.4 305.463 826.032 306.615 827.28C307.799 828.528 309.319 829.152 311.174 829.152C313.255 829.152 314.887 828.32 316.071 826.656L320.055 830.352C318.039 833.168 314.983 834.576 310.887 834.576ZM344.056 834H337.96V831.6C336.296 833.584 333.848 834.576 330.616 834.576C328.536 834.576 326.664 833.904 325 832.56C323.368 831.184 322.552 829.296 322.552 826.896C322.552 824.4 323.352 822.528 324.952 821.28C326.584 820.032 328.472 819.408 330.616 819.408C333.912 819.408 336.36 820.352 337.96 822.24V819.12C337.96 817.936 337.496 816.992 336.568 816.288C335.64 815.584 334.408 815.232 332.872 815.232C330.344 815.232 328.088 816.144 326.104 817.968L323.8 813.888C326.552 811.456 329.928 810.24 333.928 810.24C336.904 810.24 339.336 810.928 341.224 812.304C343.112 813.68 344.056 815.92 344.056 819.024V834ZM333.064 830.448C335.336 830.448 336.968 829.776 337.96 828.432V825.552C336.968 824.208 335.336 823.536 333.064 823.536C331.816 823.536 330.776 823.856 329.944 824.496C329.112 825.104 328.696 825.952 328.696 827.04C328.696 828.096 329.112 828.928 329.944 829.536C330.776 830.144 331.816 830.448 333.064 830.448ZM357.878 834.576C355.734 834.576 354.102 834.032 352.982 832.944C351.862 831.856 351.302 830.288 351.302 828.24V816.144H347.462V810.816H351.302V804.48H357.446V810.816H362.15V816.144H357.446V826.608C357.446 827.344 357.638 827.952 358.022 828.432C358.406 828.912 358.918 829.152 359.558 829.152C360.518 829.152 361.222 828.928 361.67 828.48L362.966 833.088C361.846 834.08 360.15 834.576 357.878 834.576ZM369.345 808.32C368.353 808.32 367.489 807.968 366.753 807.264C366.049 806.528 365.697 805.664 365.697 804.672C365.697 803.68 366.049 802.832 366.753 802.128C367.489 801.424 368.353 801.072 369.345 801.072C370.369 801.072 371.233 801.424 371.937 802.128C372.641 802.832 372.993 803.68 372.993 804.672C372.993 805.664 372.641 806.528 371.937 807.264C371.233 807.968 370.369 808.32 369.345 808.32ZM372.417 834H366.321V810.816H372.417V834ZM398.142 831.072C395.902 833.408 392.926 834.576 389.214 834.576C385.502 834.576 382.526 833.408 380.286 831.072C378.078 828.704 376.974 825.808 376.974 822.384C376.974 818.96 378.078 816.08 380.286 813.744C382.526 811.408 385.502 810.24 389.214 810.24C392.926 810.24 395.902 811.408 398.142 813.744C400.382 816.08 401.502 818.96 401.502 822.384C401.502 825.808 400.382 828.704 398.142 831.072ZM384.894 827.232C385.95 828.512 387.39 829.152 389.214 829.152C391.038 829.152 392.478 828.512 393.534 827.232C394.622 825.92 395.166 824.304 395.166 822.384C395.166 820.496 394.622 818.912 393.534 817.632C392.478 816.32 391.038 815.664 389.214 815.664C387.39 815.664 385.95 816.32 384.894 817.632C383.838 818.912 383.31 820.496 383.31 822.384C383.31 824.304 383.838 825.92 384.894 827.232ZM427.768 834H421.672V819.984C421.672 817.104 420.248 815.664 417.4 815.664C415.192 815.664 413.432 816.576 412.12 818.4V834H406.024V810.816H412.12V813.84C414.136 811.44 416.84 810.24 420.232 810.24C422.728 810.24 424.6 810.896 425.848 812.208C427.128 813.52 427.768 815.328 427.768 817.632V834ZM466.118 834H460.022V831.6C458.358 833.584 455.91 834.576 452.678 834.576C450.598 834.576 448.726 833.904 447.062 832.56C445.43 831.184 444.614 829.296 444.614 826.896C444.614 824.4 445.414 822.528 447.014 821.28C448.646 820.032 450.534 819.408 452.678 819.408C455.974 819.408 458.422 820.352 460.022 822.24V819.12C460.022 817.936 459.558 816.992 458.63 816.288C457.702 815.584 456.47 815.232 454.934 815.232C452.406 815.232 450.15 816.144 448.166 817.968L445.862 813.888C448.614 811.456 451.99 810.24 455.99 810.24C458.966 810.24 461.398 810.928 463.286 812.304C465.174 813.68 466.118 815.92 466.118 819.024V834ZM455.126 830.448C457.398 830.448 459.03 829.776 460.022 828.432V825.552C459.03 824.208 457.398 823.536 455.126 823.536C453.878 823.536 452.838 823.856 452.006 824.496C451.174 825.104 450.758 825.952 450.758 827.04C450.758 828.096 451.174 828.928 452.006 829.536C452.838 830.144 453.878 830.448 455.126 830.448ZM493.909 834H487.813V819.984C487.813 817.104 486.389 815.664 483.541 815.664C481.333 815.664 479.573 816.576 478.261 818.4V834H472.165V810.816H478.261V813.84C480.277 811.44 482.981 810.24 486.373 810.24C488.869 810.24 490.741 810.896 491.989 812.208C493.269 813.52 493.909 815.328 493.909 817.632V834ZM522.042 834H515.898V831.024C514.01 833.392 511.626 834.576 508.746 834.576C505.738 834.576 503.274 833.504 501.354 831.36C499.434 829.184 498.474 826.208 498.474 822.432C498.474 818.72 499.434 815.76 501.354 813.552C503.274 811.344 505.738 810.24 508.746 810.24C511.69 810.24 514.074 811.424 515.898 813.792V801.984H522.042V834ZM510.618 829.152C511.642 829.152 512.65 828.912 513.642 828.432C514.634 827.92 515.386 827.28 515.898 826.512V818.304C515.386 817.536 514.634 816.912 513.642 816.432C512.65 815.92 511.642 815.664 510.618 815.664C508.89 815.664 507.482 816.288 506.394 817.536C505.306 818.784 504.762 820.416 504.762 822.432C504.762 824.416 505.306 826.032 506.394 827.28C507.482 828.528 508.89 829.152 510.618 829.152ZM570.368 834H562.592L560.624 828.576H546.896L544.88 834H537.104L549.488 801.984H558.032L570.368 834ZM558.752 822.576L553.76 808.8L548.768 822.576H558.752ZM581.532 834.576C579.516 834.576 577.58 834.256 575.724 833.616C573.9 832.976 572.38 832.096 571.164 830.976L573.804 826.704C574.7 827.536 575.916 828.272 577.452 828.912C578.988 829.552 580.444 829.872 581.82 829.872C583.1 829.872 584.06 829.648 584.7 829.2C585.372 828.752 585.708 828.144 585.708 827.376C585.708 826.8 585.356 826.336 584.652 825.984C583.98 825.6 583.132 825.328 582.108 825.168C581.116 825.008 580.012 824.768 578.796 824.448C577.612 824.128 576.508 823.744 575.484 823.296C574.492 822.848 573.644 822.144 572.94 821.184C572.268 820.192 571.932 818.976 571.932 817.536C571.932 815.488 572.78 813.76 574.476 812.352C576.172 810.944 578.492 810.24 581.436 810.24C585.02 810.24 588.14 811.296 590.796 813.408L588.348 817.584C587.612 816.816 586.62 816.176 585.372 815.664C584.156 815.152 582.86 814.896 581.484 814.896C580.396 814.896 579.516 815.12 578.844 815.568C578.172 815.984 577.836 816.528 577.836 817.2C577.836 817.712 578.172 818.144 578.844 818.496C579.516 818.816 580.364 819.056 581.388 819.216C582.412 819.376 583.516 819.632 584.7 819.984C585.884 820.304 586.988 820.704 588.012 821.184C589.036 821.632 589.884 822.368 590.556 823.392C591.228 824.416 591.564 825.664 591.564 827.136C591.564 829.312 590.668 831.104 588.876 832.512C587.116 833.888 584.668 834.576 581.532 834.576ZM604.407 834.576C602.391 834.576 600.455 834.256 598.599 833.616C596.775 832.976 595.255 832.096 594.039 830.976L596.679 826.704C597.575 827.536 598.791 828.272 600.327 828.912C601.863 829.552 603.319 829.872 604.695 829.872C605.975 829.872 606.935 829.648 607.575 829.2C608.247 828.752 608.583 828.144 608.583 827.376C608.583 826.8 608.231 826.336 607.527 825.984C606.855 825.6 606.007 825.328 604.983 825.168C603.991 825.008 602.887 824.768 601.671 824.448C600.487 824.128 599.383 823.744 598.359 823.296C597.367 822.848 596.519 822.144 595.815 821.184C595.143 820.192 594.807 818.976 594.807 817.536C594.807 815.488 595.655 813.76 597.351 812.352C599.047 810.944 601.367 810.24 604.311 810.24C607.895 810.24 611.015 811.296 613.671 813.408L611.223 817.584C610.487 816.816 609.495 816.176 608.247 815.664C607.031 815.152 605.735 814.896 604.359 814.896C603.271 814.896 602.391 815.12 601.719 815.568C601.047 815.984 600.711 816.528 600.711 817.2C600.711 817.712 601.047 818.144 601.719 818.496C602.391 818.816 603.239 819.056 604.263 819.216C605.287 819.376 606.391 819.632 607.575 819.984C608.759 820.304 609.863 820.704 610.887 821.184C611.911 821.632 612.759 822.368 613.431 823.392C614.103 824.416 614.439 825.664 614.439 827.136C614.439 829.312 613.543 831.104 611.751 832.512C609.991 833.888 607.543 834.576 604.407 834.576ZM629.826 834.576C626.242 834.576 623.282 833.456 620.946 831.216C618.61 828.976 617.442 826.032 617.442 822.384C617.442 818.96 618.562 816.08 620.802 813.744C623.074 811.408 625.954 810.24 629.442 810.24C632.898 810.24 635.698 811.424 637.842 813.792C639.986 816.128 641.058 819.2 641.058 823.008V824.352H623.826C624.018 825.888 624.706 827.168 625.89 828.192C627.074 829.216 628.61 829.728 630.498 829.728C631.522 829.728 632.626 829.52 633.81 829.104C635.026 828.688 635.986 828.128 636.69 827.424L639.378 831.36C637.042 833.504 633.858 834.576 629.826 834.576ZM635.154 820.224C635.058 818.912 634.53 817.728 633.57 816.672C632.642 815.616 631.266 815.088 629.442 815.088C627.714 815.088 626.37 815.616 625.41 816.672C624.45 817.696 623.89 818.88 623.73 820.224H635.154ZM653.814 834.576C651.798 834.576 649.862 834.256 648.006 833.616C646.182 832.976 644.662 832.096 643.446 830.976L646.086 826.704C646.982 827.536 648.198 828.272 649.734 828.912C651.27 829.552 652.726 829.872 654.102 829.872C655.382 829.872 656.342 829.648 656.982 829.2C657.654 828.752 657.99 828.144 657.99 827.376C657.99 826.8 657.638 826.336 656.934 825.984C656.262 825.6 655.414 825.328 654.39 825.168C653.398 825.008 652.294 824.768 651.078 824.448C649.894 824.128 648.79 823.744 647.766 823.296C646.774 822.848 645.926 822.144 645.222 821.184C644.55 820.192 644.214 818.976 644.214 817.536C644.214 815.488 645.062 813.76 646.758 812.352C648.454 810.944 650.774 810.24 653.718 810.24C657.302 810.24 660.422 811.296 663.078 813.408L660.63 817.584C659.894 816.816 658.902 816.176 657.654 815.664C656.438 815.152 655.142 814.896 653.766 814.896C652.678 814.896 651.798 815.12 651.126 815.568C650.454 815.984 650.118 816.528 650.118 817.2C650.118 817.712 650.454 818.144 651.126 818.496C651.798 818.816 652.646 819.056 653.67 819.216C654.694 819.376 655.798 819.632 656.982 819.984C658.166 820.304 659.27 820.704 660.294 821.184C661.318 821.632 662.166 822.368 662.838 823.392C663.51 824.416 663.846 825.664 663.846 827.136C663.846 829.312 662.95 831.104 661.158 832.512C659.398 833.888 656.95 834.576 653.814 834.576ZM676.689 834.576C674.673 834.576 672.737 834.256 670.881 833.616C669.057 832.976 667.537 832.096 666.321 830.976L668.961 826.704C669.857 827.536 671.073 828.272 672.609 828.912C674.145 829.552 675.601 829.872 676.977 829.872C678.257 829.872 679.217 829.648 679.857 829.2C680.529 828.752 680.865 828.144 680.865 827.376C680.865 826.8 680.513 826.336 679.809 825.984C679.137 825.6 678.289 825.328 677.265 825.168C676.273 825.008 675.169 824.768 673.953 824.448C672.769 824.128 671.665 823.744 670.641 823.296C669.649 822.848 668.801 822.144 668.097 821.184C667.425 820.192 667.089 818.976 667.089 817.536C667.089 815.488 667.937 813.76 669.633 812.352C671.329 810.944 673.649 810.24 676.593 810.24C680.177 810.24 683.297 811.296 685.953 813.408L683.505 817.584C682.769 816.816 681.777 816.176 680.529 815.664C679.313 815.152 678.017 814.896 676.641 814.896C675.553 814.896 674.673 815.12 674.001 815.568C673.329 815.984 672.993 816.528 672.993 817.2C672.993 817.712 673.329 818.144 674.001 818.496C674.673 818.816 675.521 819.056 676.545 819.216C677.569 819.376 678.673 819.632 679.857 819.984C681.041 820.304 682.145 820.704 683.169 821.184C684.193 821.632 685.041 822.368 685.713 823.392C686.385 824.416 686.721 825.664 686.721 827.136C686.721 829.312 685.825 831.104 684.033 832.512C682.273 833.888 679.825 834.576 676.689 834.576ZM726.108 834H719.964V819.36C719.964 816.896 718.812 815.664 716.508 815.664C715.516 815.664 714.588 815.936 713.724 816.48C712.892 817.024 712.22 817.648 711.708 818.352V834H705.564V819.36C705.564 816.896 704.412 815.664 702.108 815.664C701.148 815.664 700.236 815.936 699.372 816.48C698.508 817.024 697.82 817.664 697.308 818.4V834H691.212V810.816H697.308V813.84C697.884 813.008 698.892 812.208 700.332 811.44C701.772 810.64 703.292 810.24 704.892 810.24C708.252 810.24 710.396 811.648 711.324 814.464C712.06 813.312 713.148 812.32 714.588 811.488C716.06 810.656 717.628 810.24 719.292 810.24C721.468 810.24 723.148 810.832 724.332 812.016C725.516 813.168 726.108 814.912 726.108 817.248V834ZM742.983 834.576C739.399 834.576 736.439 833.456 734.103 831.216C731.767 828.976 730.599 826.032 730.599 822.384C730.599 818.96 731.719 816.08 733.959 813.744C736.231 811.408 739.111 810.24 742.599 810.24C746.055 810.24 748.855 811.424 750.999 813.792C753.143 816.128 754.215 819.2 754.215 823.008V824.352H736.983C737.175 825.888 737.863 827.168 739.047 828.192C740.231 829.216 741.767 829.728 743.655 829.728C744.679 829.728 745.783 829.52 746.967 829.104C748.183 828.688 749.143 828.128 749.847 827.424L752.535 831.36C750.199 833.504 747.015 834.576 742.983 834.576ZM748.311 820.224C748.215 818.912 747.687 817.728 746.727 816.672C745.799 815.616 744.423 815.088 742.599 815.088C740.871 815.088 739.527 815.616 738.567 816.672C737.607 817.696 737.047 818.88 736.887 820.224H748.311ZM780.362 834H774.266V819.984C774.266 817.104 772.842 815.664 769.994 815.664C767.786 815.664 766.026 816.576 764.714 818.4V834H758.618V810.816H764.714V813.84C766.73 811.44 769.434 810.24 772.826 810.24C775.322 810.24 777.194 810.896 778.442 812.208C779.722 813.52 780.362 815.328 780.362 817.632V834ZM794.191 834.576C792.047 834.576 790.415 834.032 789.295 832.944C788.175 831.856 787.615 830.288 787.615 828.24V816.144H783.775V810.816H787.615V804.48H793.759V810.816H798.463V816.144H793.759V826.608C793.759 827.344 793.951 827.952 794.335 828.432C794.719 828.912 795.231 829.152 795.871 829.152C796.831 829.152 797.535 828.928 797.983 828.48L799.279 833.088C798.159 834.08 796.463 834.576 794.191 834.576Z" fill="white"/>
</svg>
